<?xml version="1.0" encoding="utf-8"?>
<!-- Generator: Adobe Illustrator 24.0.0, SVG Export Plug-In . SVG Version: 6.00 Build 0)  -->
<svg version="1.1" id="Layer_1" xmlns="http://www.w3.org/2000/svg" xmlns:xlink="http://www.w3.org/1999/xlink" x="0px" y="0px"
	 viewBox="0 0 48 48" style="enable-background:new 0 0 48 48;" xml:space="preserve">
<style type="text/css">
	.st0{fill:#7097FF;}
	.st1{fill:#FFFFFF;}
</style>
<rect class="st0" width="48" height="48"/>
<path class="st1" d="M17,19.4c0-1.7-1.4-3.2-3.2-3.2s-3.2,1.4-3.2,3.2c0,1.3,0,14.1,0,15.4c0,1.7,1.4,3.2,3.2,3.2s3.2-1.4,3.2-3.2
	C17,33.5,17,20.8,17,19.4z M37.3,13.1c0-1.7-1.4-3.2-3.2-3.2S31,11.4,31,13.1c0,1.3,0,20.4,0,21.7c0,1.7,1.4,3.2,3.2,3.2
	s3.2-1.4,3.2-3.2C37.3,33.5,37.3,14.5,37.3,13.1z M27.2,25.8c0-1.7-1.4-3.2-3.2-3.2s-3.2,1.4-3.2,3.2c0,1.3,0,7.8,0,9.1
	c0,1.7,1.4,3.2,3.2,3.2s3.2-1.4,3.2-3.2C27.2,33.5,27.2,27.1,27.2,25.8z"/>
</svg>
