<?xml version="1.0" encoding="utf-8"?>
<!-- Generator: Adobe Illustrator 24.0.0, SVG Export Plug-In . SVG Version: 6.00 Build 0)  -->
<svg version="1.1" id="Layer_1" xmlns="http://www.w3.org/2000/svg" xmlns:xlink="http://www.w3.org/1999/xlink" x="0px" y="0px"
	 viewBox="0 0 40 40" style="enable-background:new 0 0 40 40;" xml:space="preserve">
<style type="text/css">
	.st0{fill:#7097FF;}
	.st1{fill:#FFFFFF;}
</style>
<path class="st0" d="M4.9,36.5c0.8-1.3,1.7-3,2.6-4.6l0.2-0.4l-0.3-0.3c-3.8-3-5.8-7-5.8-11.3C1.5,11.5,9.8,4.5,20,4.5
	s18.5,7,18.5,15.5S30.2,35.5,20,35.5c-2.2,0-4.3-0.3-6.4-1l-0.2-0.1l-0.2,0.1C10.3,35.6,7.3,36.3,4.9,36.5z"/>
<path class="st1" d="M20,18c-1.1,0-2,0.9-2,2s0.9,2,2,2s2-0.9,2-2S21.1,18,20,18z M27,18c-1.1,0-2,0.9-2,2s0.9,2,2,2s2-0.9,2-2
	S28.1,18,27,18z M13,18c-1.1,0-2,0.9-2,2s0.9,2,2,2s2-0.9,2-2S14.1,18,13,18z"/>
</svg>
