<?xml version="1.0" encoding="utf-8"?>
<!-- Generator: Adobe Illustrator 24.0.0, SVG Export Plug-In . SVG Version: 6.00 Build 0)  -->
<svg version="1.1" id="Layer_1" xmlns="http://www.w3.org/2000/svg" xmlns:xlink="http://www.w3.org/1999/xlink" x="0px" y="0px"
	 viewBox="0 0 26 26" style="enable-background:new 0 0 26 26;" xml:space="preserve">
<style type="text/css">
	.st0{fill:#7097FF;}
	.st1{fill:#FFFFFF;}
</style>
<path class="st0" d="M25.3,20.1L15.2,2.7c-1.2-2.1-3.2-2.1-4.5,0L0.7,20.1C-0.5,22.3,0.5,24,2.9,24h20.1
	C25.5,24,26.5,22.3,25.3,20.1z"/>
<path class="st1" d="M11.6,7.7C12,7.3,12.4,7.1,13,7.1s1,0.2,1.4,0.6c0.4,0.4,0.5,0.9,0.5,1.4c0,0.5-0.8,4.2-1,6.8h-1.8
	c-0.2-2.7-1-6.3-1-6.8C11.1,8.5,11.3,8,11.6,7.7z"/>
<path class="st1" d="M14.4,20.4c-0.4,0.4-0.8,0.6-1.4,0.6c-0.5,0-1-0.2-1.4-0.6c-0.4-0.4-0.6-0.8-0.6-1.3c0-0.5,0.2-1,0.6-1.4
	c0.4-0.4,0.8-0.6,1.4-0.6c0.5,0,1,0.2,1.4,0.6c0.4,0.4,0.6,0.8,0.6,1.4C14.9,19.5,14.7,20,14.4,20.4z"/>
</svg>
