<?xml version="1.0" encoding="utf-8"?>
<!-- Generator: Adobe Illustrator 24.0.0, SVG Export Plug-In . SVG Version: 6.00 Build 0)  -->
<svg version="1.1" id="Layer_1" xmlns="http://www.w3.org/2000/svg" xmlns:xlink="http://www.w3.org/1999/xlink" x="0px" y="0px"
	 viewBox="0 0 48 48" style="enable-background:new 0 0 48 48;" xml:space="preserve">
<style type="text/css">
	.st0{fill:#5555FF;}
	.st1{fill:#FF0068;}
	.st2{fill:#0074FF;}
</style>
<g>
	<path class="st0" d="M16.6,6.7l-1.3,2.6c2.2,1,4.2,3.5,4.2,6.1c0,3.9-3.2,6.7-6.7,6.7S6,18.9,6,15.3c0-1,0.3-1.6,0.3-2.2l-2.9-0.6
		c-0.3,1-0.6,1.9-0.6,2.9c0,5.1,4.2,9.6,9.6,9.6s9.6-4.2,9.6-9.6C22.1,11.5,19.8,8.3,16.6,6.7z"/>
	<path class="st1" d="M42.3,13.4c0.3,0.6,0.3,1.3,0.3,1.9c0,3.9-3.2,6.7-6.7,6.7c-3.5,0-7.1-2.9-7.1-6.7s3.2-6.7,6.7-6.7
		c0,0,0,0,0.3,0L36.5,6c-0.3,0-0.6,0-1,0c-5.1,0-9.6,4.2-9.6,9.6s4.2,9.6,9.6,9.6s9.6-4.2,9.6-9.6c0-1,0-1.6-0.3-2.6L42.3,13.4z"/>
	<path class="st2" d="M18.2,42l1.6-2.2c-1-1.3-1.6-2.9-1.6-4.5c0-3.9,3.2-6.7,6.7-6.7s6.7,3.2,6.7,6.7c0,1.9-1,3.9-2.2,5.1l2.2,1.6
		c1.6-1.6,2.6-4.2,2.6-6.7c0-5.1-4.2-9.6-9.6-9.6S15,29.8,15,35.2C15.3,37.8,16.3,40.4,18.2,42z"/>
</g>
</svg>
