<?xml version="1.0" encoding="utf-8"?>
<!-- Generator: Adobe Illustrator 24.0.0, SVG Export Plug-In . SVG Version: 6.00 Build 0)  -->
<svg version="1.1" id="Layer_1" xmlns="http://www.w3.org/2000/svg" xmlns:xlink="http://www.w3.org/1999/xlink" x="0px" y="0px"
	 viewBox="0 0 240 100.8" style="enable-background:new 0 0 240 100.8;" xml:space="preserve">
<style type="text/css">
	.st0{fill:#5555FF;}
	.st1{fill:#FF0068;}
	.st2{fill:#0074FF;}
</style>
<g>
	<path class="st0" d="M24.8,27.1l-2,3.9c3.5,1.5,6.4,5.4,6.4,9.4c0,5.9-4.9,10.4-10.4,10.4S8.5,45.9,8.5,40.4C8.5,39,9,38,9,37
		l-4.4-1c-0.5,1.5-1,3-1,4.4c0,7.9,6.4,14.8,14.8,14.8s14.8-6.4,14.8-14.8C33.2,34.5,29.7,29.6,24.8,27.1z"/>
	<path class="st1" d="M64.3,37.5c0.5,1,0.5,2,0.5,3c0,5.9-4.9,10.4-10.4,10.4s-10.9-4.4-10.9-10.4s4.9-10.4,10.4-10.4c0,0,0,0,0.5,0
		l1-3.9c-0.5,0-1,0-1.5,0c-7.9,0-14.8,6.4-14.8,14.8s6.4,14.8,14.8,14.8S68.7,49.4,68.7,41c0-1.5,0-2.5-0.5-3.9L64.3,37.5z"/>
	<path class="st2" d="M27.3,81.4l2.5-3.5c-1.5-2-2.5-4.4-2.5-6.9c0-5.9,4.9-10.4,10.4-10.4S48,65.6,48,71c0,3-1.5,5.9-3.5,7.9
		l3.5,2.5c2.5-2.5,3.9-6.4,3.9-10.4c0-7.9-6.4-14.8-14.8-14.8S22.3,62.6,22.3,71C22.8,75,24.3,78.9,27.3,81.4z"/>
</g>
<g>
	<path d="M89.6,41.6v19.2h-3.8V41.6H89.6z"/>
	<path d="M106.2,47.2c1,1.1,1.5,2.7,1.5,4.8v8.7h-3.8v-8.3c0-1.2-0.3-2.1-0.9-2.8s-1.5-1-2.5-1c-1.1,0-2,0.4-2.6,1.1
		c-0.7,0.7-1,1.7-1,3v8h-3.8v-15h3.8v3c0.4-1,1.1-1.8,2-2.4c0.9-0.6,2-0.9,3.2-0.9C103.8,45.5,105.2,46.1,106.2,47.2z"/>
	<path d="M119.2,57.5v3.3h-2c-1.7,0-3-0.4-3.9-1.2s-1.3-2.2-1.3-4.1V49h-2.1v-3.2h2.1V42h3.8v3.7h3.4V49h-3.4v6.6
		c0,0.7,0.1,1.2,0.4,1.5s0.8,0.4,1.5,0.4H119.2z"/>
	<path d="M135.9,54h-11c0.1,1.3,0.4,2.3,1.1,3c0.7,0.6,1.5,1,2.5,1c0.9,0,1.6-0.2,2.2-0.7c0.6-0.4,1-1,1.1-1.8h4
		c-0.2,1.1-0.6,2-1.3,2.8s-1.5,1.5-2.5,2s-2.2,0.7-3.4,0.7c-1.5,0-2.8-0.3-3.9-0.9c-1.1-0.6-2-1.5-2.7-2.7c-0.6-1.2-1-2.5-1-4.1
		s0.3-3,1-4.1c0.6-1.2,1.5-2.1,2.7-2.7s2.4-0.9,3.9-0.9s2.8,0.3,3.9,0.9s2,1.5,2.6,2.5c0.6,1.1,0.9,2.3,0.9,3.7
		C136,53.1,136,53.5,135.9,54z M131.2,49.5c-0.7-0.6-1.5-0.9-2.6-0.9c-1,0-1.9,0.3-2.6,0.9c-0.7,0.6-1.1,1.6-1.2,2.8h7.3
		C132.2,51.1,131.9,50.2,131.2,49.5z"/>
	<path d="M147.9,46.5c0.9,0.6,1.5,1.4,1.9,2.4v-3.1h3.8v15.1c0,1.4-0.3,2.7-0.8,3.8c-0.5,1.1-1.4,2-2.5,2.6s-2.4,0.9-4,0.9
		c-2.2,0-3.9-0.5-5.3-1.5c-1.3-1-2.2-2.4-2.4-4.2h3.8c0.2,0.8,0.6,1.4,1.3,1.8c0.6,0.4,1.4,0.6,2.4,0.6c1.1,0,2-0.3,2.7-1
		c0.7-0.7,1-1.7,1-3v-3.2c-0.4,1-1,1.8-1.9,2.4c-0.9,0.6-2,0.9-3.3,0.9s-2.4-0.3-3.4-0.9c-1-0.6-1.8-1.5-2.4-2.7
		c-0.6-1.2-0.9-2.5-0.9-4.1s0.3-3,0.9-4.1c0.6-1.2,1.4-2.1,2.4-2.7c1-0.6,2.2-0.9,3.4-0.9C145.9,45.6,147,45.9,147.9,46.5z
		 M143,50.1c-0.7,0.8-1.1,1.8-1.1,3.2s0.4,2.4,1.1,3.2c0.7,0.8,1.7,1.2,2.9,1.2s2.1-0.4,2.9-1.2c0.8-0.8,1.1-1.8,1.1-3.2
		c0-1.3-0.4-2.4-1.1-3.2c-0.8-0.8-1.7-1.2-2.9-1.2C144.7,48.9,143.7,49.3,143,50.1z"/>
	<path d="M163.2,46.4c0.9-0.6,2-0.8,3.1-0.8v4.1h-1.1c-2.8,0-4.2,1.3-4.2,3.9v7.3h-3.8v-15h3.8v2.9
		C161.5,47.7,162.3,46.9,163.2,46.4z"/>
	<path d="M177.6,46.5c0.9,0.6,1.5,1.4,1.9,2.4v-3.1h3.8v15h-3.8v-3.2c-0.4,1-1,1.8-1.9,2.4c-0.9,0.6-2,0.9-3.3,0.9s-2.4-0.3-3.4-0.9
		c-1-0.6-1.8-1.5-2.4-2.7c-0.6-1.2-0.9-2.5-0.9-4.1s0.3-3,0.9-4.1c0.6-1.2,1.4-2.1,2.4-2.7c1-0.6,2.2-0.9,3.4-0.9
		C175.6,45.6,176.7,45.9,177.6,46.5z M172.6,50.1c-0.7,0.8-1.1,1.8-1.1,3.2s0.4,2.4,1.1,3.2c0.7,0.8,1.7,1.2,2.9,1.2
		s2.1-0.4,2.9-1.2c0.8-0.8,1.1-1.8,1.1-3.2c0-1.3-0.4-2.4-1.1-3.2c-0.8-0.8-1.7-1.2-2.9-1.2C174.3,48.9,173.3,49.3,172.6,50.1z"/>
	<path d="M194.8,57.5v3.3h-2c-1.7,0-3-0.4-3.9-1.2s-1.3-2.2-1.3-4.1V49h-2.1v-3.2h2.1V42h3.8v3.7h3.4V49h-3.4v6.6
		c0,0.7,0.1,1.2,0.4,1.5c0.3,0.3,0.8,0.4,1.5,0.4H194.8z"/>
	<path d="M197.8,39.9c0.4-0.4,1-0.6,1.7-0.6s1.3,0.2,1.7,0.6c0.4,0.4,0.7,0.9,0.7,1.5s-0.2,1.1-0.7,1.5c-0.4,0.4-1,0.6-1.7,0.6
		s-1.3-0.2-1.7-0.6c-0.4-0.4-0.7-0.9-0.7-1.5C197.1,40.8,197.3,40.3,197.8,39.9z M201.4,45.7v15h-3.8v-15H201.4z"/>
	<path d="M215.8,46.5c1.2,0.6,2.1,1.5,2.8,2.7s1,2.5,1,4.1s-0.3,2.9-1,4.1c-0.7,1.2-1.6,2.1-2.8,2.7c-1.2,0.6-2.5,0.9-4,0.9
		s-2.8-0.3-4-0.9c-1.2-0.6-2.1-1.5-2.8-2.7s-1-2.5-1-4.1s0.3-3,1-4.1c0.7-1.2,1.6-2.1,2.8-2.7c1.2-0.6,2.5-0.9,4-0.9
		S214.6,45.9,215.8,46.5z M209.1,50c-0.7,0.8-1.1,1.8-1.1,3.3c0,1.4,0.4,2.5,1.1,3.3c0.7,0.8,1.7,1.1,2.7,1.1c1.1,0,2-0.4,2.7-1.1
		c0.7-0.8,1.1-1.8,1.1-3.3c0-1.4-0.4-2.5-1.1-3.3c-0.7-0.8-1.6-1.1-2.7-1.1C210.8,48.9,209.9,49.2,209.1,50z"/>
	<path d="M235.4,47.2c1,1.1,1.5,2.7,1.5,4.8v8.7h-3.8v-8.3c0-1.2-0.3-2.1-0.9-2.8c-0.6-0.7-1.5-1-2.5-1c-1.1,0-2,0.4-2.6,1.1
		c-0.7,0.7-1,1.7-1,3v8h-3.8v-15h3.8v3c0.4-1,1.1-1.8,2-2.4c0.9-0.6,2-0.9,3.2-0.9C233,45.5,234.3,46.1,235.4,47.2z"/>
</g>
</svg>
