<svg xmlns="http://www.w3.org/2000/svg" xmlns:xlink="http://www.w3.org/1999/xlink" viewBox="0 0 48 48" fill="#7097FF">
  <path d="M27.5 3C26.672 3 26 3.672 26 4.5L26 20.5C26 21.328 26.672 22 27.5 22L43.5 22C44.328 22 45 21.328 45 20.5C45 10.851 37.149 3 27.5 3 z M 21.496094 9C10.957094 9.002 2.5640781 18.368844 4.2050781 29.214844C5.3330781 36.672844 11.327156 42.666922 18.785156 43.794922C29.631156 45.435922 38.998 37.042906 39 26.503906C39 25.675906 38.328 25 37.5 25L25 25C23.895 25 23 24.105 23 23L23 10.5C23 9.672 22.324094 9 21.496094 9 z" fill="#7097FF" />
</svg>