<?xml version="1.0" encoding="utf-8"?>
<!-- Generator: Adobe Illustrator 24.0.0, SVG Export Plug-In . SVG Version: 6.00 Build 0)  -->
<svg version="1.1" id="Layer_1" xmlns="http://www.w3.org/2000/svg" xmlns:xlink="http://www.w3.org/1999/xlink" x="0px" y="0px"
	 viewBox="0 0 48 48" style="enable-background:new 0 0 48 48;" xml:space="preserve">
<style type="text/css">
	.st0{fill:#FFFFFF;}
	.st1{fill:#7097FF;}
</style>
<path class="st0" d="M27.5,3C26.7,3,26,3.7,26,4.5v16c0,0.8,0.7,1.5,1.5,1.5h16c0.8,0,1.5-0.7,1.5-1.5C45,10.9,37.1,3,27.5,3z"/>
<path class="st1" d="M21.5,9C11,9,2.6,18.4,4.2,29.2c1.1,7.5,7.1,13.5,14.6,14.6C29.6,45.4,39,37,39,26.5c0-0.8-0.7-1.5-1.5-1.5H25
	c-1.1,0-2-0.9-2-2V10.5C23,9.7,22.3,9,21.5,9z"/>
</svg>
