<svg xmlns="http://www.w3.org/2000/svg" xmlns:xlink="http://www.w3.org/1999/xlink" viewBox="0 0 24 24"><path d="M4.4140625 1.9960938L1.0039062 2.0136719L1.0136719 4.0136719L3.0839844 4.0039062L6.3789062 11.908203L5.1816406 13.824219C4.7816406 14.464219 4.7609531 15.272641 5.1269531 15.931641C5.4929531 16.590641 6.1874063 17 6.9414062 17L19 17L19 15L6.9414062 15L6.8769531 14.882812L8.0527344 13L15.521484 13C16.248484 13 16.917531 12.604703 17.269531 11.970703L20.873047 5.4863281C21.046047 5.1763281 21.041328 4.7981875 20.861328 4.4921875C20.681328 4.1871875 20.352047 4 19.998047 4L5.25 4L4.4140625 1.9960938 z M 6.0820312 6L18.298828 6L15.521484 11L8.1660156 11L6.0820312 6 z M 7 18 A 2 2 0 0 0 5 20 A 2 2 0 0 0 7 22 A 2 2 0 0 0 9 20 A 2 2 0 0 0 7 18 z M 17 18 A 2 2 0 0 0 15 20 A 2 2 0 0 0 17 22 A 2 2 0 0 0 19 20 A 2 2 0 0 0 17 18 z"/></svg>