<?xml version="1.0" encoding="utf-8"?>
<!-- Generator: Adobe Illustrator 24.0.0, SVG Export Plug-In . SVG Version: 6.00 Build 0)  -->
<svg version="1.1" id="Layer_1" xmlns="http://www.w3.org/2000/svg" xmlns:xlink="http://www.w3.org/1999/xlink" x="0px" y="0px"
	 viewBox="0 0 48 48" style="enable-background:new 0 0 48 48;" xml:space="preserve">
<style type="text/css">
	.st0{fill:#7097FF;}
	.st1{fill:#FFFFFF;}
</style>
<rect class="st0" width="48" height="48"/>
<path class="st1" d="M28.6,17c1.7,0,3.2-1.4,3.2-3.2s-1.4-3.2-3.2-3.2c-1.3,0-14.1,0-15.4,0c-1.7,0-3.2,1.4-3.2,3.2s1.4,3.2,3.2,3.2
	C14.5,17,27.2,17,28.6,17z M34.9,37.3c1.7,0,3.2-1.4,3.2-3.2S36.6,31,34.9,31c-1.3,0-20.4,0-21.7,0c-1.7,0-3.2,1.4-3.2,3.2
	s1.4,3.2,3.2,3.2C14.5,37.3,33.5,37.3,34.9,37.3z M22.2,27.2c1.7,0,3.2-1.4,3.2-3.2s-1.4-3.2-3.2-3.2c-1.3,0-7.8,0-9.1,0
	c-1.7,0-3.2,1.4-3.2,3.2s1.4,3.2,3.2,3.2C14.5,27.2,20.9,27.2,22.2,27.2z"/>
</svg>
